<svg xmlns="http://www.w3.org/2000/svg" viewBox="0 0 1060 580" width="1060" height="580" role="img" aria-label="In-loop eval — MATH500 greedy mean@1">
<style>
  .ink{fill:#1f2328} .mute{fill:#656d76} .paper{fill:#ffffff}
  .grid{stroke:#d8dee4} .axis{stroke:#656d76} .bg-line{stroke:#d8dee4}
  text{font-family:-apple-system,BlinkMacSystemFont,"Segoe UI",Helvetica,Arial,sans-serif}
  @media (prefers-color-scheme: dark) {
    .ink{fill:#e6edf3} .mute{fill:#8b949e} .paper{fill:#0d1117}
    .grid{stroke:#30363d} .axis{stroke:#8b949e} .bg-line{stroke:#30363d}
  }
</style>
<style>.k0{stroke:#981d0b}.k0f{fill:#981d0b}.k1{stroke:#98440b}.k1f{fill:#98440b}.k2{stroke:#9f6611}.k2f{fill:#9f6611}.k3{stroke:#a08417}.k3f{fill:#a08417}.k4{stroke:#8c8a19}.k4f{fill:#8c8a19}.k5{stroke:#7c9220}.k5f{fill:#7c9220}.k6{stroke:#31980b}.k6f{fill:#31980b}.k7{stroke:#1d9c13}.k7f{fill:#1d9c13}.k8{stroke:#1b9e29}.k8f{fill:#1b9e29}.k9{stroke:#229c47}.k9f{fill:#229c47}.k10{stroke:#0b9862}.k10f{fill:#0b9862}.k11{stroke:#169a7f}.k11f{fill:#169a7f}.k12{stroke:#219793}.k12f{fill:#219793}.k13{stroke:#0b7098}.k13f{fill:#0b7098}.k14{stroke:#1864a5}.k14f{fill:#1864a5}.k15{stroke:#2758b0}.k15f{fill:#2758b0}.k16{stroke:#0b1298}.k16f{fill:#0b1298}.k17{stroke:#2a18a5}.k17f{fill:#2a18a5}.k18{stroke:#5027b0}.k18f{fill:#5027b0}.k19{stroke:#630b98}.k19f{fill:#630b98}.k20{stroke:#8613a1}.k20f{fill:#8613a1}.k21{stroke:#a91ca9}.k21f{fill:#a91ca9}.k22{stroke:#b02796}.k22f{fill:#b02796}.k23{stroke:#980b51}.k23f{fill:#980b51}.k24{stroke:#a51844}.k24f{fill:#a51844}.k25{stroke:#b0273a}.k25f{fill:#b0273a}.k26{stroke:#57980b}.k26f{fill:#57980b}.k27{stroke:#535965}.k27f{fill:#535965}.k28{stroke:#2e3138}.k28f{fill:#2e3138}
@media (prefers-color-scheme: dark){.k0{stroke:#e75f4b}.k0f{fill:#e75f4b}.k1{stroke:#e78a4b}.k1f{fill:#e78a4b}.k2{stroke:#e5ae5c}.k2f{fill:#e5ae5c}.k3{stroke:#e4cc6c}.k3f{fill:#e4cc6c}.k4{stroke:#e4e37c}.k4f{fill:#e4e37c}.k5{stroke:#d3e48b}.k5f{fill:#d3e48b}.k6{stroke:#75e74b}.k6f{fill:#75e74b}.k7{stroke:#6ce562}.k7f{fill:#6ce562}.k8{stroke:#77e483}.k8f{fill:#77e483}.k9{stroke:#8be4a6}.k9f{fill:#8be4a6}.k10{stroke:#4be7ab}.k10f{fill:#4be7ab}.k11{stroke:#6ce4cc}.k11f{fill:#6ce4cc}.k12{stroke:#8be4e1}.k12f{fill:#8be4e1}.k13{stroke:#4bbbe7}.k13f{fill:#4bbbe7}.k14{stroke:#6cade4}.k14f{fill:#6cade4}.k15{stroke:#8babe4}.k15f{fill:#8babe4}.k16{stroke:#5158e7}.k16f{fill:#5158e7}.k17{stroke:#7c6ce4}.k17f{fill:#7c6ce4}.k18{stroke:#a68be4}.k18f{fill:#a68be4}.k19{stroke:#ac4be7}.k19f{fill:#ac4be7}.k20{stroke:#cc62e5}.k20f{fill:#cc62e5}.k21{stroke:#e477e4}.k21f{fill:#e477e4}.k22{stroke:#e48bd3}.k22f{fill:#e48bd3}.k23{stroke:#e74b98}.k23f{fill:#e74b98}.k24{stroke:#e46c92}.k24f{fill:#e46c92}.k25{stroke:#e48b98}.k25f{fill:#e48b98}.k26{stroke:#9fe74b}.k26f{fill:#9fe74b}.k27{stroke:#9ca4b4}.k27f{fill:#9ca4b4}.k28{stroke:#d0d4dc}.k28f{fill:#d0d4dc}}</style>
<rect class="paper" width="1060" height="580" fill="#ffffff"/>
<text class="ink" x="62" y="26" fill="#1f2328" font-size="16" font-weight="600">In-loop eval — MATH500 greedy mean@1</text>
<text class="mute" x="62" y="44" fill="#656d76" font-size="12">every 25 steps; the untrained student scores 0.4580 on the same protocol · all 29 arms, each named at its own curve's end · hue = experimental axis</text>
<line class="grid" x1="62" y1="503.2" x2="864" y2="503.2" stroke="#d8dee4" stroke-width="1"/>
<text class="mute" x="54" y="507.2" fill="#656d76" font-size="11" text-anchor="end">0</text>
<line class="grid" x1="62" y1="387.8" x2="864" y2="387.8" stroke="#d8dee4" stroke-width="1"/>
<text class="mute" x="54" y="391.8" fill="#656d76" font-size="11" text-anchor="end">0.25</text>
<line class="grid" x1="62" y1="272.5" x2="864" y2="272.5" stroke="#d8dee4" stroke-width="1"/>
<text class="mute" x="54" y="276.5" fill="#656d76" font-size="11" text-anchor="end">0.5</text>
<line class="grid" x1="62" y1="157.1" x2="864" y2="157.1" stroke="#d8dee4" stroke-width="1"/>
<text class="mute" x="54" y="161.1" fill="#656d76" font-size="11" text-anchor="end">0.75</text>
<text class="mute" x="151.1" y="548" fill="#656d76" font-size="11" text-anchor="middle">50</text>
<text class="mute" x="329.3" y="548" fill="#656d76" font-size="11" text-anchor="middle">100</text>
<text class="mute" x="507.6" y="548" fill="#656d76" font-size="11" text-anchor="middle">150</text>
<text class="mute" x="685.8" y="548" fill="#656d76" font-size="11" text-anchor="middle">200</text>
<text class="mute" x="864.0" y="548" fill="#656d76" font-size="11" text-anchor="middle">250</text>
<line class="axis" x1="62" y1="528" x2="864" y2="528" stroke="#656d76" stroke-width="1"/>
<text class="mute" x="463" y="566" fill="#656d76" font-size="12" text-anchor="middle">training step</text>
<text class="mute" transform="translate(16,294) rotate(-90)" fill="#656d76" font-size="12" text-anchor="middle">accuracy</text>
<line x1="62" y1="85.1" x2="864" y2="85.1" stroke="#d1242f" stroke-width="1.2" stroke-dasharray="5 4" opacity="0.75"/>
<text x="860" y="79.1" fill="#d1242f" font-size="11" text-anchor="end">teacher 0.9060</text>
<path class="k0" d="M62.0,304.8 L151.1,301.4 L240.2,300.5 L329.3,287.2 L418.4,288.5 L507.6,287.5 L596.7,277.4 L685.8,282.6 L774.9,281.7" fill="none" stroke="#981d0b" stroke-width="1.7" stroke-linejoin="round" stroke-linecap="round" opacity="1"/>
<path class="k1" d="M62.0,229.1 L151.1,214.0 L240.2,213.1 L329.3,218.6 L418.4,220.5 L507.6,221.1 L596.7,205.7 L685.8,212.8 L774.9,293.4 L864.0,283.8" fill="none" stroke="#98440b" stroke-width="1.7" stroke-linejoin="round" stroke-linecap="round" opacity="1"/>
<path class="k2" d="M62.0,253.7 L151.1,239.2 L240.2,263.5 L329.3,291.8 L418.4,278.6 L507.6,291.5 L596.7,314.9 L685.8,290.9" fill="none" stroke="#9f6611" stroke-width="1.7" stroke-linejoin="round" stroke-linecap="round" opacity="1"/>
<path class="k3" d="M62.0,234.6 L151.1,220.8 L240.2,246.9 L329.3,339.8 L418.4,451.2 L507.6,491.5 L596.7,494.9 L685.8,502.0 L774.9,502.9 L864.0,502.0" fill="none" stroke="#a08417" stroke-width="1.7" stroke-linejoin="round" stroke-linecap="round" opacity="1"/>
<path class="k4" d="M62.0,234.9 L151.1,229.7 L240.2,257.4 L329.3,260.5 L418.4,282.6 L507.6,278.0 L596.7,269.7 L685.8,266.9 L774.9,263.8 L864.0,261.4" fill="none" stroke="#8c8a19" stroke-width="1.7" stroke-linejoin="round" stroke-linecap="round" opacity="1"/>
<path class="k5" d="M62.0,218.3 L151.1,214.6 L240.2,217.7 L329.3,226.6 L418.4,263.5 L507.6,285.4 L596.7,304.2 L685.8,284.5 L774.9,282.9 L864.0,290.9" fill="none" stroke="#7c9220" stroke-width="1.7" stroke-linejoin="round" stroke-linecap="round" opacity="1"/>
<path class="k6" d="M62.0,310.6 L151.1,278.3 L240.2,270.6 L329.3,262.0 L418.4,257.1 L507.6,258.3 L596.7,262.6 L685.8,263.8 L774.9,258.9 L864.0,261.4" fill="none" stroke="#31980b" stroke-width="1.7" stroke-linejoin="round" stroke-linecap="round" opacity="1"/>
<path class="k7" d="M62.0,210.3 L151.1,221.7 L240.2,218.6 L329.3,221.1 L418.4,209.1 L507.6,208.5 L596.7,205.1 L685.8,200.2 L774.9,194.9 L864.0,187.5" fill="none" stroke="#1d9c13" stroke-width="1.7" stroke-linejoin="round" stroke-linecap="round" opacity="1"/>
<path class="k8" d="M62.0,242.0 L151.1,218.6 L240.2,226.9 L329.3,263.8 L418.4,247.2 L507.6,236.5 L596.7,231.2 L685.8,232.2 L774.9,231.5 L864.0,226.9" fill="none" stroke="#1b9e29" stroke-width="1.7" stroke-linejoin="round" stroke-linecap="round" opacity="1"/>
<path class="k9" d="M62.0,213.7 L151.1,218.6 L240.2,226.9 L329.3,231.5 L418.4,229.7 L507.6,229.7 L596.7,217.4 L685.8,212.2 L774.9,208.8 L864.0,208.5" fill="none" stroke="#229c47" stroke-width="1.7" stroke-linejoin="round" stroke-linecap="round" opacity="1"/>
<path class="k10" d="M62.0,235.5 L151.1,217.1 L240.2,218.3 L329.3,236.8 L418.4,258.9 L507.6,291.5 L596.7,288.2 L685.8,291.2 L774.9,277.4 L864.0,284.8" fill="none" stroke="#0b9862" stroke-width="1.7" stroke-linejoin="round" stroke-linecap="round" opacity="1"/>
<path class="k11" d="M62.0,223.2 L151.1,217.1 L240.2,228.5 L329.3,220.8 L418.4,207.5 L507.6,207.5 L596.7,245.1 L685.8,284.8 L774.9,285.4 L864.0,281.7" fill="none" stroke="#169a7f" stroke-width="1.7" stroke-linejoin="round" stroke-linecap="round" opacity="1"/>
<path class="k12" d="M62.0,235.2 L151.1,216.2 L240.2,242.6 L329.3,253.1 L418.4,305.7 L507.6,302.3 L596.7,311.2 L685.8,301.7 L774.9,304.2 L864.0,311.8" fill="none" stroke="#219793" stroke-width="1.7" stroke-linejoin="round" stroke-linecap="round" opacity="1"/>
<path class="k13" d="M62.0,262.6 L151.1,273.1 L240.2,274.3 L329.3,259.8 L418.4,251.8 L507.6,240.2 L596.7,246.9 L685.8,239.5 L774.9,240.8 L864.0,239.2" fill="none" stroke="#0b7098" stroke-width="1.7" stroke-linejoin="round" stroke-linecap="round" opacity="1"/>
<path class="k14" d="M62.0,228.2 L151.1,227.8 L240.2,231.8 L329.3,234.9 L418.4,273.4 L507.6,286.6 L596.7,290.9" fill="none" stroke="#1864a5" stroke-width="1.7" stroke-linejoin="round" stroke-linecap="round" opacity="1"/>
<path class="k15" d="M62.0,248.5 L151.1,218.0 L240.2,209.1 L329.3,216.5 L418.4,244.5 L507.6,262.3 L596.7,266.0 L685.8,251.5 L774.9,235.5 L864.0,231.5" fill="none" stroke="#2758b0" stroke-width="1.7" stroke-linejoin="round" stroke-linecap="round" opacity="1"/>
<path class="k16" d="M62.0,231.8 L151.1,222.0 L240.2,215.2 L329.3,212.2 L418.4,217.1 L507.6,211.5 L596.7,215.8 L685.8,292.2 L774.9,289.4 L864.0,296.8" fill="none" stroke="#0b1298" stroke-width="1.7" stroke-linejoin="round" stroke-linecap="round" opacity="1"/>
<path class="k17" d="M62.0,224.8 L151.1,212.2 L240.2,218.0 L329.3,210.9 L418.4,212.5 L507.6,212.2 L596.7,204.2 L685.8,289.1 L774.9,287.8 L864.0,292.2" fill="none" stroke="#2a18a5" stroke-width="1.7" stroke-linejoin="round" stroke-linecap="round" opacity="1"/>
<path class="k18" d="M62.0,261.7 L151.1,243.5 L240.2,249.1 L329.3,235.2 L418.4,244.2 L507.6,247.2 L596.7,248.2 L685.8,271.2 L774.9,277.1 L864.0,284.8" fill="none" stroke="#5027b0" stroke-width="1.7" stroke-linejoin="round" stroke-linecap="round" opacity="1"/>
<path class="k19" d="M62.0,400.5 L151.1,425.1 L240.2,447.2 L329.3,235.2 L418.4,214.0 L507.6,239.8 L596.7,254.0 L685.8,258.9 L774.9,267.2 L864.0,258.9" fill="none" stroke="#630b98" stroke-width="1.7" stroke-linejoin="round" stroke-linecap="round" opacity="1"/>
<path class="k20" d="M62.0,218.9 L151.1,220.8 L240.2,219.2 L329.3,215.2 L418.4,247.5 L507.6,271.8 L596.7,281.4 L685.8,290.6 L774.9,274.9 L864.0,267.2" fill="none" stroke="#8613a1" stroke-width="1.7" stroke-linejoin="round" stroke-linecap="round" opacity="1"/>
<path class="k21" d="M62.0,219.5 L151.1,219.2 L240.2,213.1 L329.3,234.6 L418.4,273.7 L507.6,288.5 L596.7,307.2 L685.8,302.3 L774.9,288.2 L864.0,295.5" fill="none" stroke="#a91ca9" stroke-width="1.7" stroke-linejoin="round" stroke-linecap="round" opacity="1"/>
<path class="k22" d="M62.0,218.0 L151.1,220.8 L240.2,214.0 L329.3,234.9 L418.4,274.3 L507.6,289.1 L596.7,307.2" fill="none" stroke="#b02796" stroke-width="1.7" stroke-linejoin="round" stroke-linecap="round" opacity="1"/>
<path class="k23" d="M62.0,232.2 L151.1,213.4 L240.2,213.7 L329.3,213.1 L418.4,219.5 L507.6,212.5 L596.7,218.3 L685.8,211.5 L774.9,214.3 L864.0,214.6" fill="none" stroke="#980b51" stroke-width="1.7" stroke-linejoin="round" stroke-linecap="round" opacity="1"/>
<path class="k24" d="M62.0,283.8 L151.1,383.2 L240.2,458.9 L329.3,458.6 L418.4,427.5 L507.6,398.0 L596.7,325.7 L685.8,294.3 L774.9,301.1" fill="none" stroke="#a51844" stroke-width="1.7" stroke-linejoin="round" stroke-linecap="round" opacity="1"/>
<path class="k25" d="M62.0,246.9 L151.1,203.8 L240.2,220.5 L329.3,220.8 L418.4,223.5 L507.6,227.8 L596.7,228.5 L685.8,226.9 L774.9,228.2 L864.0,234.3" fill="none" stroke="#b0273a" stroke-width="1.7" stroke-linejoin="round" stroke-linecap="round" opacity="1"/>
<path class="k26" d="M62.0,249.1 L151.1,238.6 L240.2,233.7 L329.3,220.5 L418.4,211.8 L507.6,209.4 L596.7,208.5 L685.8,205.1 L774.9,207.2 L864.0,208.5" fill="none" stroke="#57980b" stroke-width="1.7" stroke-linejoin="round" stroke-linecap="round" opacity="1"/>
<path class="k27" d="M62.0,224.5 L151.1,214.0 L240.2,214.6 L329.3,237.7 L418.4,264.5 L507.6,283.8 L596.7,301.1 L685.8,299.5 L774.9,284.5 L864.0,284.8" fill="none" stroke="#535965" stroke-width="1.7" stroke-linejoin="round" stroke-linecap="round" opacity="1"/>
<path class="k28" d="M62.0,215.8 L151.1,212.8 L240.2,219.8 L329.3,246.9 L418.4,259.5 L507.6,281.7 L596.7,303.5 L685.8,286.0 L774.9,278.6 L864.0,288.2" fill="none" stroke="#2e3138" stroke-width="1.7" stroke-linejoin="round" stroke-linecap="round" opacity="1"/>
<path class="k0" d="M774.9,281.7 L870,281.7 L882,335.0 L886.0,335.0" fill="none" stroke="#981d0b" stroke-width="0.9" opacity="0.55"/>
<circle class="k0f" cx="774.9" cy="281.7" r="2.1" fill="#981d0b"/>
<text class="k0f" x="890" y="338.5" fill="#981d0b" font-size="10.5">a2_coldstart</text>
<path class="k1" d="M864.0,283.8 L870,283.8 L882,358.0 L886.0,358.0" fill="none" stroke="#98440b" stroke-width="0.9" opacity="0.55"/>
<circle class="k1f" cx="864.0" cy="283.8" r="2.1" fill="#98440b"/>
<text class="k1f" x="890" y="361.5" fill="#98440b" font-size="10.5">b1_skew_kl</text>
<path class="k2" d="M685.8,290.9 L870,290.9 L882,415.5 L886.0,415.5" fill="none" stroke="#9f6611" stroke-width="0.9" opacity="0.55"/>
<circle class="k2f" cx="685.8" cy="290.9" r="2.1" fill="#9f6611"/>
<text class="k2f" x="890" y="419.0" fill="#9f6611" font-size="10.5">b2_forward_kl</text>
<path class="k3" d="M864.0,502.0 L870,502.0 L882,519.0 L886.0,519.0" fill="none" stroke="#a08417" stroke-width="0.9" opacity="0.55"/>
<circle class="k3f" cx="864.0" cy="502.0" r="2.1" fill="#a08417"/>
<text class="k3f" x="890" y="522.5" fill="#a08417" font-size="10.5">b3_eopd_gate</text>
<path class="k4" d="M864.0,261.4 L870,261.4 L882,300.5 L886.0,300.5" fill="none" stroke="#8c8a19" stroke-width="0.9" opacity="0.55"/>
<circle class="k4f" cx="864.0" cy="261.4" r="2.1" fill="#8c8a19"/>
<text class="k4f" x="890" y="304.0" fill="#8c8a19" font-size="10.5">b4_jsd</text>
<path class="k5" d="M864.0,290.9 L870,290.9 L882,427.0 L886.0,427.0" fill="none" stroke="#7c9220" stroke-width="0.9" opacity="0.55"/>
<circle class="k5f" cx="864.0" cy="290.9" r="2.1" fill="#7c9220"/>
<text class="k5f" x="890" y="430.5" fill="#7c9220" font-size="10.5">b5_k2</text>
<path class="k6" d="M864.0,261.4 L870,261.4 L882,312.0 L886.0,312.0" fill="none" stroke="#31980b" stroke-width="0.9" opacity="0.55"/>
<circle class="k6f" cx="864.0" cy="261.4" r="2.1" fill="#31980b"/>
<text class="k6f" x="890" y="315.5" fill="#31980b" font-size="10.5">c1_lsm_topk32_renorm</text>
<path class="k7" d="M864.0,187.5 L870,187.5 L882,187.5 L886.0,187.5" fill="none" stroke="#1d9c13" stroke-width="0.9" opacity="0.55"/>
<circle class="k7f" cx="864.0" cy="187.5" r="2.1" fill="#1d9c13"/>
<text class="k7f" x="890" y="191.0" fill="#1d9c13" font-size="10.5">c2_quantile_budget</text>
<path class="k8" d="M864.0,226.9 L870,226.9 L882,243.0 L886.0,243.0" fill="none" stroke="#1b9e29" stroke-width="0.9" opacity="0.55"/>
<circle class="k8f" cx="864.0" cy="226.9" r="2.1" fill="#1b9e29"/>
<text class="k8f" x="890" y="246.5" fill="#1b9e29" font-size="10.5">c3_intersection</text>
<path class="k9" d="M864.0,208.5 L870,208.5 L882,208.5 L886.0,208.5" fill="none" stroke="#229c47" stroke-width="0.9" opacity="0.55"/>
<circle class="k9f" cx="864.0" cy="208.5" r="2.1" fill="#229c47"/>
<text class="k9f" x="890" y="212.0" fill="#229c47" font-size="10.5">c4_pi_tail_budget</text>
<path class="k10" d="M864.0,284.8 L870,284.8 L882,369.5 L886.0,369.5" fill="none" stroke="#0b9862" stroke-width="0.9" opacity="0.55"/>
<circle class="k10f" cx="864.0" cy="284.8" r="2.1" fill="#0b9862"/>
<text class="k10f" x="890" y="373.0" fill="#0b9862" font-size="10.5">d1_tip</text>
<path class="k11" d="M864.0,281.7 L870,281.7 L882,346.5 L886.0,346.5" fill="none" stroke="#169a7f" stroke-width="0.9" opacity="0.55"/>
<circle class="k11f" cx="864.0" cy="281.7" r="2.1" fill="#169a7f"/>
<text class="k11f" x="890" y="350.0" fill="#169a7f" font-size="10.5">d2_selectkd</text>
<path class="k12" d="M864.0,311.8 L870,311.8 L882,507.5 L886.0,507.5" fill="none" stroke="#219793" stroke-width="0.9" opacity="0.55"/>
<circle class="k12f" cx="864.0" cy="311.8" r="2.1" fill="#219793"/>
<text class="k12f" x="890" y="511.0" fill="#219793" font-size="10.5">d3_teachability</text>
<path class="k13" d="M864.0,239.2 L870,239.2 L882,277.5 L886.0,277.5" fill="none" stroke="#0b7098" stroke-width="0.9" opacity="0.55"/>
<circle class="k13f" cx="864.0" cy="239.2" r="2.1" fill="#0b7098"/>
<text class="k13f" x="890" y="281.0" fill="#0b7098" font-size="10.5">e1_pl_rank</text>
<path class="k14" d="M596.7,290.9 L870,290.9 L882,438.5 L886.0,438.5" fill="none" stroke="#1864a5" stroke-width="0.9" opacity="0.55"/>
<circle class="k14f" cx="596.7" cy="290.9" r="2.1" fill="#1864a5"/>
<text class="k14f" x="890" y="442.0" fill="#1864a5" font-size="10.5">e2_set_coverage</text>
<path class="k15" d="M864.0,231.5 L870,231.5 L882,254.5 L886.0,254.5" fill="none" stroke="#2758b0" stroke-width="0.9" opacity="0.55"/>
<circle class="k15f" cx="864.0" cy="231.5" r="2.1" fill="#2758b0"/>
<text class="k15f" x="890" y="258.0" fill="#2758b0" font-size="10.5">e3_zvalue</text>
<path class="k16" d="M864.0,296.8 L870,296.8 L882,473.0 L886.0,473.0" fill="none" stroke="#0b1298" stroke-width="0.9" opacity="0.55"/>
<circle class="k16f" cx="864.0" cy="296.8" r="2.1" fill="#0b1298"/>
<text class="k16f" x="890" y="476.5" fill="#0b1298" font-size="10.5">f1_soft_log</text>
<path class="k17" d="M864.0,292.2 L870,292.2 L882,450.0 L886.0,450.0" fill="none" stroke="#2a18a5" stroke-width="0.9" opacity="0.55"/>
<circle class="k17f" cx="864.0" cy="292.2" r="2.1" fill="#2a18a5"/>
<text class="k17f" x="890" y="453.5" fill="#2a18a5" font-size="10.5">f2_hard_clip</text>
<path class="k18" d="M864.0,284.8 L870,284.8 L882,381.0 L886.0,381.0" fill="none" stroke="#5027b0" stroke-width="0.9" opacity="0.55"/>
<circle class="k18f" cx="864.0" cy="284.8" r="2.1" fill="#5027b0"/>
<text class="k18f" x="890" y="384.5" fill="#5027b0" font-size="10.5">f3_power</text>
<path class="k19" d="M864.0,258.9 L870,258.9 L882,289.0 L886.0,289.0" fill="none" stroke="#630b98" stroke-width="0.9" opacity="0.55"/>
<circle class="k19f" cx="864.0" cy="258.9" r="2.1" fill="#630b98"/>
<text class="k19f" x="890" y="292.5" fill="#630b98" font-size="10.5">g1_verified_only</text>
<path class="k20" d="M864.0,267.2 L870,267.2 L882,323.5 L886.0,323.5" fill="none" stroke="#8613a1" stroke-width="0.9" opacity="0.55"/>
<circle class="k20f" cx="864.0" cy="267.2" r="2.1" fill="#8613a1"/>
<text class="k20f" x="890" y="327.0" fill="#8613a1" font-size="10.5">g2_fire_likelihood</text>
<path class="k21" d="M864.0,295.5 L870,295.5 L882,461.5 L886.0,461.5" fill="none" stroke="#a91ca9" stroke-width="0.9" opacity="0.55"/>
<circle class="k21f" cx="864.0" cy="295.5" r="2.1" fill="#a91ca9"/>
<text class="k21f" x="890" y="465.0" fill="#a91ca9" font-size="10.5">g4_failure_only</text>
<path class="k22" d="M596.7,307.2 L870,307.2 L882,496.0 L886.0,496.0" fill="none" stroke="#b02796" stroke-width="0.9" opacity="0.55"/>
<circle class="k22f" cx="596.7" cy="307.2" r="2.1" fill="#b02796"/>
<text class="k22f" x="890" y="499.5" fill="#b02796" font-size="10.5">g5_rgopd_gate</text>
<path class="k23" d="M864.0,214.6 L870,214.6 L882,231.5 L886.0,231.5" fill="none" stroke="#980b51" stroke-width="0.9" opacity="0.55"/>
<circle class="k23f" cx="864.0" cy="214.6" r="2.1" fill="#980b51"/>
<text class="k23f" x="890" y="235.0" fill="#980b51" font-size="10.5">h1_first_segment</text>
<path class="k24" d="M774.9,301.1 L870,301.1 L882,484.5 L886.0,484.5" fill="none" stroke="#a51844" stroke-width="0.9" opacity="0.55"/>
<circle class="k24f" cx="774.9" cy="301.1" r="2.1" fill="#a51844"/>
<text class="k24f" x="890" y="488.0" fill="#a51844" font-size="10.5">h2_last_segment</text>
<path class="k25" d="M864.0,234.3 L870,234.3 L882,266.0 L886.0,266.0" fill="none" stroke="#b0273a" stroke-width="0.9" opacity="0.55"/>
<circle class="k25f" cx="864.0" cy="234.3" r="2.1" fill="#b0273a"/>
<text class="k25f" x="890" y="269.5" fill="#b0273a" font-size="10.5">h3_random_segment</text>
<path class="k26" d="M864.0,208.5 L870,208.5 L882,220.0 L886.0,220.0" fill="none" stroke="#57980b" stroke-width="0.9" opacity="0.55"/>
<circle class="k26f" cx="864.0" cy="208.5" r="2.1" fill="#57980b"/>
<text class="k26f" x="890" y="223.5" fill="#57980b" font-size="10.5">j1_kdrl</text>
<path class="k27" d="M864.0,284.8 L870,284.8 L882,392.5 L886.0,392.5" fill="none" stroke="#535965" stroke-width="0.9" opacity="0.55"/>
<circle class="k27f" cx="864.0" cy="284.8" r="2.1" fill="#535965"/>
<text class="k27f" x="890" y="396.0" fill="#535965" font-size="10.5">vanilla</text>
<path class="k28" d="M864.0,288.2 L870,288.2 L882,404.0 L886.0,404.0" fill="none" stroke="#2e3138" stroke-width="0.9" opacity="0.55"/>
<circle class="k28f" cx="864.0" cy="288.2" r="2.1" fill="#2e3138"/>
<text class="k28f" x="890" y="407.5" fill="#2e3138" font-size="10.5">vanilla_n8</text>
</svg>